<svg width="48" height="48" viewBox="0 0 48 48" fill="none" xmlns="http://www.w3.org/2000/svg">
<path d="M19.5 23.8275C19.5 26.3308 16.6149 27.7331 14.6465 26.1865L1.50231 15.8589C-0.0264053 14.6578 -0.0264063 12.3421 1.50231 11.141L14.6465 0.813376C16.6149 -0.733213 19.5 0.669036 19.5 3.17233V5.99994C19.5 7.65679 20.8431 8.99994 22.5 8.99994H28.5C39.2696 8.99994 48 17.7304 48 28.4999C48 39.2695 39.2696 47.9999 28.5 47.9999L3 47.9999C1.34315 47.9999 0 46.6568 0 44.9999V41.9999C0 40.3431 1.34315 38.9999 3 38.9999H28.5C34.299 38.9999 39 34.2989 39 28.4999C39 22.7009 34.299 17.9999 28.5 17.9999H22.5C20.8431 17.9999 19.5 19.3431 19.5 20.9999V23.8275Z" fill="#9F1A1A"/>
</svg>
