<svg width="62" height="62" viewBox="0 0 62 62" fill="none" xmlns="http://www.w3.org/2000/svg">
<path d="M57.8701 26.7574L49.3847 35.2427C47.8226 36.8048 45.29 36.8048 43.7279 35.2427C42.1658 33.6806 42.1658 31.148 43.7279 29.5859L50.7989 22.5148C53.1421 20.1717 53.1421 16.3727 50.7989 14.0295L47.9705 11.2011C45.6274 8.85796 41.8284 8.85796 39.4852 11.2011L32.4142 18.2722C30.8521 19.8343 28.3194 19.8343 26.7573 18.2722C25.1952 16.7101 25.1952 14.1774 26.7573 12.6153L35.2427 4.12995C39.929 -0.556339 47.5269 -0.556339 52.2132 4.12995L57.8701 9.78681C62.5564 14.4731 62.5564 22.0711 57.8701 26.7574Z" fill="#0B4440"/>
<path d="M4.12995 35.2427L12.6152 26.7574C14.1773 25.1953 16.71 25.1953 18.2721 26.7574C19.8342 28.3195 19.8342 30.8522 18.2721 32.4143L11.201 39.4853C8.85788 41.8285 8.85788 45.6275 11.201 47.9706L14.0294 50.799C16.3726 53.1422 20.1716 53.1422 22.5147 50.799L29.5858 43.728C31.1479 42.1659 33.6806 42.1659 35.2426 43.728C36.8047 45.2901 36.8047 47.8227 35.2426 49.3848L26.7574 57.8701C22.0711 62.5564 14.4731 62.5564 9.78681 57.8701L4.12995 52.2133C-0.556339 47.527 -0.556339 39.929 4.12995 35.2427Z" fill="#0B4440"/>
</svg>
