<svg width="62" height="62" viewBox="0 0 62 62" fill="none" xmlns="http://www.w3.org/2000/svg">
<path d="M31.6313 21.8834C29.8823 23.6324 26.9171 23.3515 26.3696 20.9394C25.4876 17.0531 26.5597 12.8129 29.5858 9.78681L35.2426 4.12995C39.9289 -0.556339 47.5269 -0.556338 52.2132 4.12995L57.87 9.78681C62.5563 14.4731 62.5563 22.0711 57.87 26.7574L52.2132 32.4142C49.1871 35.4403 44.9469 36.5124 41.0606 35.6304C38.6484 35.0829 38.3676 32.1177 40.1166 30.3686L42.1296 28.3556C42.9342 27.5511 44.063 27.1981 45.1678 26.9261C46.1949 26.6733 47.1681 26.1456 47.9705 25.3432L50.799 22.5147C53.1421 20.1716 53.1421 16.3726 50.799 14.0294L47.9705 11.201C45.6274 8.85787 41.8284 8.85787 39.4852 11.201L36.6568 14.0294C35.8544 14.8319 35.3267 15.8051 35.0739 16.8321C34.8019 17.9369 34.4489 19.0658 33.6444 19.8703L31.6313 21.8834Z" fill="#8C2E36"/>
<path d="M4.12995 52.2132C-0.556338 47.5269 -0.556339 39.9289 4.12995 35.2426L9.78681 29.5858C12.8129 26.5597 17.0531 25.4876 20.9394 26.3696C23.3515 26.9171 23.6324 29.8823 21.8834 31.6313L19.8703 33.6444C19.0658 34.4489 17.9369 34.8019 16.8321 35.0739C15.8051 35.3267 14.8319 35.8544 14.0294 36.6568L11.201 39.4852C8.85788 41.8284 8.85788 45.6274 11.201 47.9705L14.0294 50.799C16.3726 53.1421 20.1716 53.1421 22.5147 50.799L25.3432 47.9705C26.1456 47.1681 26.6733 46.1949 26.9261 45.1678C27.1981 44.063 27.5511 42.9342 28.3556 42.1296L30.3686 40.1166C32.1177 38.3676 35.0829 38.6484 35.6304 41.0606C36.5124 44.9469 35.4403 49.1871 32.4142 52.2132L26.7574 57.87C22.0711 62.5563 14.4731 62.5563 9.78681 57.87L4.12995 52.2132Z" fill="#8C2E36"/>
<path d="M18.2721 38.071C16.71 39.6331 16.71 42.1658 18.2721 43.7279C19.8342 45.29 22.3668 45.29 23.9289 43.7279L43.7279 23.9289C45.29 22.3668 45.29 19.8341 43.7279 18.272C42.1658 16.7099 39.6332 16.7099 38.0711 18.272L18.2721 38.071Z" fill="#8C2E36"/>
</svg>
