<svg width="48" height="48" viewBox="0 0 48 48" fill="none" xmlns="http://www.w3.org/2000/svg">
<path fill-rule="evenodd" clip-rule="evenodd" d="M7.02944 7.02944C16.402 -2.34315 31.598 -2.34315 40.9706 7.02944C50.3431 16.402 50.3431 31.598 40.9706 40.9706C31.598 50.3431 16.402 50.3431 7.02944 40.9706C-2.34315 31.598 -2.34315 16.402 7.02944 7.02944ZM14.8228 10.5802C14.1669 9.92428 14.257 8.83174 15.0619 8.37078C21.9373 4.43334 30.8563 5.40043 36.7279 11.2721C42.5996 17.1437 43.5667 26.0627 39.6292 32.9381C39.1683 33.743 38.0757 33.8331 37.4198 33.1772L14.8228 10.5802ZM8.37078 15.0619C8.83174 14.257 9.92428 14.1669 10.5802 14.8228L33.1772 37.4198C33.8331 38.0757 33.743 39.1683 32.9381 39.6292C26.0627 43.5667 17.1437 42.5996 11.2721 36.7279C5.40043 30.8563 4.43334 21.9373 8.37078 15.0619Z" fill="#ED6B3B"/>
</svg>
