<svg width="32" height="32" viewBox="0 0 32 32" fill="none" xmlns="http://www.w3.org/2000/svg">
<path d="M0 8C0 3.58172 3.58172 0 8 0H24C28.4183 0 32 3.58172 32 8V24C32 28.4183 28.4183 32 24 32H8C3.58172 32 0 28.4183 0 24V8Z" fill="#133433"/>
<path d="M8 2H24V-2H8V2ZM30 8V24H34V8H30ZM24 30H8V34H24V30ZM2 24V8H-2V24H2ZM8 30C4.68629 30 2 27.3137 2 24H-2C-2 29.5228 2.47715 34 8 34V30ZM30 24C30 27.3137 27.3137 30 24 30V34C29.5228 34 34 29.5228 34 24H30ZM24 2C27.3137 2 30 4.68629 30 8H34C34 2.47715 29.5228 -2 24 -2V2ZM8 -2C2.47715 -2 -2 2.47715 -2 8H2C2 4.68629 4.68629 2 8 2V-2Z" fill="#0A1A1A"/>
</svg>
