<svg xmlns="http://www.w3.org/2000/svg" width="32.641" height="32.641" viewBox="0 0 32.641 32.641">
  <g id="Connect" transform="translate(-0.201 -0.201)">
    <path id="Path_327" data-name="Path 327" d="M30.481,11.974a.888.888,0,0,1-1.46-.193,6.161,6.161,0,0,1,1.268-6.873l2.9-2.9A6.159,6.159,0,0,1,41.9,2l2.9,2.9a6.159,6.159,0,0,1,0,8.71l-2.9,2.9a6.161,6.161,0,0,1-6.873,1.268.888.888,0,0,1-.193-1.46l1.5-1.5a1.273,1.273,0,0,1,1-.322,3.072,3.072,0,0,0,2.392-.895L41.9,11.441a3.079,3.079,0,0,0,0-4.355L39.725,4.908a3.079,3.079,0,0,0-4.355,0L33.192,7.086A3.072,3.072,0,0,0,32.3,9.477a1.273,1.273,0,0,1-.322,1Z" transform="translate(-13.768 0)" fill="#266866"/>
    <path id="Path_328" data-name="Path 328" d="M2,41.9a6.159,6.159,0,0,1,0-8.71l2.9-2.9a6.161,6.161,0,0,1,6.873-1.268.888.888,0,0,1,.193,1.46l-1.5,1.5a1.273,1.273,0,0,1-1,.322,3.072,3.072,0,0,0-2.392.895L4.908,35.37a3.079,3.079,0,0,0,0,4.355L7.086,41.9a3.079,3.079,0,0,0,4.355,0l2.177-2.177a3.072,3.072,0,0,0,.895-2.392,1.273,1.273,0,0,1,.322-1l1.5-1.5a.888.888,0,0,1,1.46.193A6.161,6.161,0,0,1,16.521,41.9l-2.9,2.9a6.159,6.159,0,0,1-8.71,0Z" transform="translate(0 -13.768)" fill="#266866"/>
    <path id="Path_329" data-name="Path 329" d="M20.966,29.676a1.54,1.54,0,0,0,2.177,2.177l8.71-8.71a1.54,1.54,0,0,0-2.177-2.177Z" transform="translate(-9.888 -9.888)" fill="#266866"/>
  </g>
</svg>
