<svg width="64" height="64" viewBox="0 0 64 64" fill="none" xmlns="http://www.w3.org/2000/svg">
<path d="M56.8889 2.00587e-06C60.3253 2.15608e-06 63.1925 2.43756 63.8555 5.67798C63.9503 6.14089 64 6.6202 64 7.11111L64 50C64 52.2091 62.2091 54 60 54C57.7909 54 56 52.2091 56 50L56 10C56 8.89543 55.1046 8 54 8L14 8C11.7909 8 10 6.20914 10 4C10 1.79086 11.7909 0 14 0L56.8889 2.00587e-06Z" fill="#0A1A1A"/>
<path fill-rule="evenodd" clip-rule="evenodd" d="M46 9.99992C50.4183 9.99992 54 13.5816 54 17.9999L54 55.9999C54 60.4182 50.4183 63.9999 46 63.9999H8C3.58172 63.9999 0 60.4182 0 55.9999L3.46501e-06 17.9999C3.65814e-06 13.5816 3.58173 9.99992 8 9.99992H46ZM44 17.9999C45.1046 17.9999 46 18.8954 46 19.9999V53.9999C46 55.1045 45.1046 55.9999 44 55.9999H10C8.89543 55.9999 8 55.1045 8 53.9999L8 19.9999C8 18.8953 8.89543 17.9999 10 17.9999L44 17.9999Z" fill="#0A1A1A"/>
</svg>
