<svg width="48" height="48" viewBox="0 0 48 48" fill="none" xmlns="http://www.w3.org/2000/svg">
<path d="M0 3C0 1.34315 1.34315 0 3 0H3.75C5.40685 0 6.75 1.34315 6.75 3V22.5C6.75 23.3284 7.42157 24 8.25 24C9.07843 24 9.75 24.6716 9.75 25.5V45C9.75 46.6569 8.40685 48 6.75 48H3C1.34315 48 0 46.6569 0 45V3Z" fill="#F9BD24"/>
<path d="M14.25 24C13.4216 24 12.75 24.6716 12.75 25.5V45C12.75 46.6569 14.0931 48 15.75 48H19.5C21.1569 48 22.5 46.6569 22.5 45V25.5C22.5 24.6716 21.8284 24 21 24C20.1716 24 19.5 23.3284 19.5 22.5V1.875C19.5 0.839466 18.6605 0 17.625 0C16.5895 0 15.75 0.839466 15.75 1.875V22.5C15.75 23.3284 15.0784 24 14.25 24Z" fill="#F9BD24"/>
<path d="M28.5 48C26.8431 48 25.5 46.6569 25.5 45V25.5C25.5 24.6716 26.1716 24 27 24C27.8284 24 28.5 23.3284 28.5 22.5V1.875C28.5 0.839466 29.3395 0 30.375 0C31.4105 0 32.25 0.839466 32.25 1.875V22.5C32.25 23.3284 32.9216 24 33.75 24C34.5784 24 35.25 24.6716 35.25 25.5V45C35.25 46.6569 33.9069 48 32.25 48H28.5Z" fill="#F9BD24"/>
<path d="M39.75 24C38.9216 24 38.25 24.6716 38.25 25.5V45C38.25 46.6569 39.5931 48 41.25 48H45C46.6569 48 48 46.6569 48 45V3C48 1.34315 46.6569 0 45 0H44.25C42.5931 0 41.25 1.34315 41.25 3V22.5C41.25 23.3284 40.5784 24 39.75 24Z" fill="#F9BD24"/>
</svg>
