<svg xmlns="http://www.w3.org/2000/svg" width="32.64" height="32.641" viewBox="0 0 32.64 32.641">
  <g id="Disconnect" transform="translate(-1.615 -1.615)">
    <path id="Path_336" data-name="Path 336" d="M43.926,15.657l-4.558,4.558a2.148,2.148,0,0,1-3.038-3.038l3.8-3.8a3.223,3.223,0,0,0,0-4.558L38.609,7.3a3.223,3.223,0,0,0-4.558,0l-3.8,3.8a2.148,2.148,0,0,1-3.038-3.038L31.773,3.5a6.445,6.445,0,0,1,9.115,0l3.038,3.038A6.445,6.445,0,0,1,43.926,15.657Z" transform="translate(-11.558)" fill="#ed6b3b"/>
    <path id="Path_337" data-name="Path 337" d="M3.5,31.773l4.558-4.558A2.148,2.148,0,0,1,11.1,30.254l-3.8,3.8a3.223,3.223,0,0,0,0,4.558L8.82,40.128a3.223,3.223,0,0,0,4.558,0l3.8-3.8a2.148,2.148,0,0,1,3.038,3.038l-4.558,4.558a6.445,6.445,0,0,1-9.115,0L3.5,40.888A6.445,6.445,0,0,1,3.5,31.773Z" transform="translate(0 -11.558)" fill="#ed6b3b"/>
  </g>
</svg>
