<svg width="64" height="64" viewBox="0 0 64 64" fill="none" xmlns="http://www.w3.org/2000/svg">
<path d="M28.8878 34.95C29.1599 37.0833 30.1973 38.15 32 38.15C33.8027 38.15 34.8401 37.0833 35.1122 34.95L36.8469 19.85C37.085 18.1167 36.7789 16.7167 35.9286 15.65C35.0782 14.55 33.7687 14 32 14C30.2653 14 28.9558 14.55 28.0714 15.65C27.1871 16.7167 26.8639 18.1167 27.102 19.85L28.8878 34.95Z" fill="#F6DBB9"/>
<path d="M28.3265 48.65C29.2449 49.55 30.4694 50 32 50C33.5646 50 34.7891 49.55 35.6735 48.65C36.5578 47.7167 37 46.5333 37 45.1C37 43.7 36.5578 42.55 35.6735 41.65C34.7891 40.75 33.5646 40.3 32 40.3C30.4694 40.3 29.2449 40.75 28.3265 41.65C27.4422 42.55 27 43.7 27 45.1C27 46.5333 27.4422 47.7167 28.3265 48.65Z" fill="#F6DBB9"/>
<path fill-rule="evenodd" clip-rule="evenodd" d="M64 32C64 49.6731 49.6731 64 32 64C14.3269 64 0 49.6731 0 32C0 14.3269 14.3269 0 32 0C49.6731 0 64 14.3269 64 32ZM56 32C56 45.2548 45.2548 56 32 56C18.7452 56 8 45.2548 8 32C8 18.7452 18.7452 8 32 8C45.2548 8 56 18.7452 56 32Z" fill="#F6DBB9"/>
</svg>
