<svg width="48" height="48" viewBox="0 0 48 48" fill="none" xmlns="http://www.w3.org/2000/svg">
<path d="M41.9997 1.70474e-06C45.3135 1.70474e-06 47.9997 2.68629 47.9997 6V42C47.9997 45.3137 45.3135 48 41.9997 48H8.99975C5.68604 48 2.99975 45.3137 2.99975 42V40.6149C2.99975 38.1298 5.84806 36.7222 7.8221 38.2318L8.24635 38.5562C8.72121 38.9193 8.99975 39.483 8.99975 40.0808C8.99975 41.1407 9.85902 42 10.919 42H38.9997C40.6566 42 41.9997 40.6569 41.9997 39V9C41.9997 7.34315 40.6566 6 38.9998 6L10.919 6C9.85903 6 8.99975 6.85927 8.99975 7.91924C8.99975 8.51703 8.72121 9.08068 8.24635 9.44381L7.8221 9.76824C5.84806 11.2778 2.99975 9.87022 2.99975 7.38516L2.99975 6C2.99975 2.68629 5.68604 0 8.99975 0L41.9997 1.70474e-06Z" fill="#F68800"/>
<path d="M1.502 21.641C-0.0267087 22.8422 -0.0267107 25.1578 1.502 26.359L14.6462 36.6866C16.6146 38.2332 19.4997 36.8309 19.4997 34.3276V31.5C19.4997 29.8431 20.8428 28.5 22.4997 28.5H28.4997C30.1565 28.5 31.4997 27.1569 31.4997 25.5V22.5C31.4997 20.8431 30.1565 19.5 28.4997 19.5H22.4997C20.8428 19.5 19.4997 18.1569 19.4997 16.5V13.6724C19.4997 11.1691 16.6146 9.76685 14.6462 11.3134L1.502 21.641Z" fill="#F68800"/>
</svg>
