<svg width="820" height="969.9999999999999" xmlns="http://www.w3.org/2000/svg" preserveAspectRatio="xMidYMid meet" version="1.0">

 <g>
  <title>Layer 1</title>
  <g id="svg_1" fill="#000000" transform="translate(0 1280) scale(0.1 -0.1)">
   <path id="svg_2" d="m2729.27266,12764.00022c-949,-103 -1759,-550 -2204,-1214c-87,-130 -195,-350 -242,-495c-179,-540 -118,-1200 144,-1580c66,-94 223,-246 326,-314c586,-388 1408,-351 1820,81c108,113 182,246 226,408c20,75 23,106 22,270c0,168 -3,194 -27,283c-33,123 -90,254 -153,349c-55,84 -221,253 -309,315c-78,56 -203,117 -285,140c-95,26 -309,23 -510,-7c-101,-15 -202,-24 -290,-24c-125,-1 -139,1 -185,24c-42,21 -55,35 -80,84c-38,76 -47,200 -20,293c135,472 967,928 1770,969c448,23 862,-111 1177,-380c311,-266 569,-781 667,-1331c48,-273 56,-374 56,-745c-1,-270 -5,-392 -18,-510c-84,-747 -250,-1337 -552,-1956c-589,-1211 -1557,-2209 -3305,-3404c-460,-315 -522,-361 -632,-479c-37,-39 -80,-95 -95,-124c-70,-135 -4,-267 135,-267c147,0 555,198 1237,602c928,549 1222,728 1545,939c349,229 776,538 1066,771c1276,1027 2059,2181 2293,3382c175,895 50,1718 -365,2408c-287,477 -755,904 -1284,1173c-365,185 -744,295 -1175,340c-178,19 -580,18 -753,-1z"/>
   <path id="svg_3" d="m7288.27266,11829.00022c-126,-22 -253,-93 -349,-194c-151,-159 -213,-377 -167,-594c32,-155 95,-262 228,-387c92,-88 204,-152 312,-179c78,-20 242,-20 320,0c291,74 498,338 499,635c0,119 -14,181 -71,298c-37,79 -58,107 -131,180c-125,124 -223,188 -352,226c-68,20 -217,28 -289,15z"/>
   <path id="svg_4" d="m7247.27266,9184.00022c-108,-28 -218,-91 -294,-168c-124,-125 -184,-258 -193,-426c-13,-236 79,-441 272,-603c213,-179 491,-215 735,-96c69,34 101,58 170,128c134,135 192,275 193,461c1,269 -155,503 -434,650c-42,22 -105,46 -140,55c-80,18 -236,18 -309,-1z"/>
  </g>
 </g>
</svg>