<svg xmlns="http://www.w3.org/2000/svg" xmlns:xlink="http://www.w3.org/1999/xlink" width="41.96" height="41.96" viewBox="0 0 41.96 41.96"><defs><filter id="a" x="0" y="0" width="41.96" height="41.96" filterUnits="userSpaceOnUse"><feOffset dy="3" input="SourceAlpha"/><feGaussianBlur stdDeviation="3" result="b"/><feFlood flood-opacity="0.161"/><feComposite operator="in" in2="b"/><feComposite in="SourceGraphic"/></filter></defs><g transform="translate(9 6)"><g class="b" transform="matrix(1, 0, 0, 1, -9, -6)"><path class="a" d="M24.522,12.542A11.98,11.98,0,1,1,12.542.563,11.979,11.979,0,0,1,24.522,12.542ZM12.864,4.524A6.257,6.257,0,0,0,7.234,7.6a.58.58,0,0,0,.131.785L9.041,9.66a.579.579,0,0,0,.805-.1c.863-1.095,1.455-1.729,2.768-1.729.987,0,2.207.635,2.207,1.592,0,.723-.6,1.095-1.572,1.641-1.136.637-2.64,1.43-2.64,3.413v.193a.58.58,0,0,0,.58.58h2.705a.58.58,0,0,0,.58-.58V14.6c0-1.375,4.018-1.432,4.018-5.153C18.493,6.649,15.587,4.524,12.864,4.524ZM12.542,16.5a2.222,2.222,0,1,0,2.222,2.222A2.225,2.225,0,0,0,12.542,16.5Z" transform="translate(8.44 5.44)"/></g></g></svg>