<svg width="48" height="48" viewBox="0 0 48 48" fill="none" xmlns="http://www.w3.org/2000/svg">
<path d="M27 2.99988C27 1.34302 25.6568 -0.00012207 24 -0.00012207C22.3431 -0.00012207 21 1.34302 21 2.99988V5.99988C21 7.65673 22.3431 8.99988 24 8.99988C25.6568 8.99988 27 7.65673 27 5.99988V2.99988Z" fill="#266866"/>
<path d="M36.7279 7.02929C37.8995 5.85772 39.799 5.85772 40.9706 7.02929C42.1421 8.20086 42.1421 10.1004 40.9706 11.2719L38.8492 13.3933C37.6777 14.5648 35.7782 14.5648 34.6066 13.3933C33.435 12.2217 33.435 10.3222 34.6066 9.15061L36.7279 7.02929Z" fill="#266866"/>
<path d="M6 26.9999C7.65685 26.9999 9 25.6568 9 23.9999C9 22.3431 7.65685 20.9999 6 20.9999H3C1.34315 20.9999 0 22.3431 0 23.9999C0 25.6568 1.34315 26.9999 3 26.9999H6Z" fill="#266866"/>
<path d="M45 26.9999C46.6569 26.9999 48 25.6568 48 23.9999C48 22.3431 46.6569 20.9999 45 20.9999H42C40.3431 20.9999 39 22.3431 39 23.9999C39 25.6568 40.3431 26.9999 42 26.9999H45Z" fill="#266866"/>
<path d="M7.02944 11.272C5.85786 10.1004 5.85786 8.20089 7.02944 7.02932C8.20101 5.85774 10.1005 5.85774 11.2721 7.02932L13.3934 9.15063C14.565 10.3222 14.565 12.2217 13.3934 13.3933C12.2218 14.5648 10.3223 14.5648 9.15076 13.3933L7.02944 11.272Z" fill="#266866"/>
<path d="M29.6513 36.4867C29.8364 34.6364 30.9452 33.043 32.2158 31.6853C34.0978 29.6742 35.25 26.9716 35.25 23.9999C35.25 17.7867 30.2132 12.7499 24 12.7499C17.7868 12.7499 12.75 17.7867 12.75 23.9999C12.75 26.9716 13.9022 29.6742 15.7843 31.6853C17.0548 33.043 18.1637 34.6364 18.3487 36.4867L18.3926 36.9252C18.6806 39.8061 21.1048 41.9999 24 41.9999C26.8952 41.9999 29.3194 39.8061 29.6075 36.9252L29.6513 36.4867Z" fill="#266866"/>
<path d="M20.8575 47.9999C20.0869 47.9999 19.4416 47.416 19.365 46.6492C19.2766 45.7662 19.9701 44.9999 20.8575 44.9999H27.1425C28.03 44.9999 28.7234 45.7662 28.6351 46.6492C28.5584 47.416 27.9132 47.9999 27.1425 47.9999H20.8575Z" fill="#266866"/>
</svg>
