<svg xmlns="http://www.w3.org/2000/svg" width="41.735" height="41.78" viewBox="0 0 41.735 41.78">
  <g id="home-svgrepo-com" transform="translate(-3.266 1.613)">
    <path id="Path_466" data-name="Path 466" d="M41.458,18.86l-9.867-9.5V1.8a1.777,1.777,0,1,0-3.554,0V5.944L22.348.468a1.773,1.773,0,0,0-2.4,0L.846,18.86A1.714,1.714,0,0,0,.76,21.346a1.714,1.714,0,0,0,2.486.085l.265-.256V40A1.787,1.787,0,0,0,5.288,41.78H37.1a1.833,1.833,0,0,0,1.777-1.691V21.355l.179.171c1.3.9,2.221.265,2.486-.179A1.8,1.8,0,0,0,41.458,18.86ZM24.3,38.32H18.085V28.812H24.3Zm11.02,0H27.772V27.035A1.787,1.787,0,0,0,26,25.259H16.308a1.787,1.787,0,0,0-1.777,1.777V38.32H7.065V20.9H35.324V38.32ZM7.406,17.442,21.194,4.2,34.845,17.442Z" transform="translate(3 -1.613)" fill="#fff"/>
  </g>
</svg>
