<svg width="64" height="64" viewBox="0 0 64 64" fill="none" xmlns="http://www.w3.org/2000/svg">
<path d="M37.549 13.7627C39.06 12.3074 40 10.2635 40 8C40 3.58172 36.4183 0 32 0C27.5817 0 24 3.58172 24 8C24 10.2635 24.94 12.3074 26.451 13.7627C28.0428 15.2959 29.4229 17.4492 28.8414 19.5814L25.6443 31.3041C24.8048 34.3823 20.876 35.2869 18.775 32.8857L14.5294 28.0336C12.6601 25.8972 13.6904 22.2979 15.0411 19.801C15.6527 18.6704 16 17.3757 16 16C16 11.5817 12.4183 8 8 8C3.58172 8 0 11.5817 0 16C0 18.4988 1.14567 20.7301 2.94039 22.1971C4.05147 23.1053 5.03321 24.2657 5.21121 25.6897L7.88746 47.0997C7.96155 47.6924 7.90196 48.2941 7.71308 48.8607L5.75497 54.7351C5.50317 55.4905 4.79625 56 4 56C1.79086 56 0 57.7909 0 60C0 62.2091 1.79086 64 4 64H60C62.2091 64 64 62.2091 64 60C64 57.7909 62.2091 56 60 56C59.2037 56 58.4968 55.4905 58.245 54.7351L56.2869 48.8607C56.098 48.2941 56.0385 47.6924 56.1125 47.0997L58.7888 25.6897C58.9668 24.2657 59.9485 23.1053 61.0596 22.1971C62.8543 20.7301 64 18.4988 64 16C64 11.5817 60.4183 8 56 8C51.5817 8 48 11.5817 48 16C48 17.3757 48.3473 18.6704 48.9589 19.801C50.3097 22.2979 51.34 25.8972 49.4706 28.0336L45.225 32.8857C43.124 35.2869 39.1952 34.3823 38.3557 31.3041L35.1586 19.5814C34.5771 17.4492 35.9572 15.2959 37.549 13.7627Z" fill="#0A1A1A"/>
</svg>
