<svg width="48" height="48" viewBox="0 0 48 48" fill="none" xmlns="http://www.w3.org/2000/svg">
<path d="M42 1.70474e-06C45.3137 1.70474e-06 48 2.68629 48 6V42C48 45.3137 45.3137 48 42 48H9C5.68629 48 3 45.3137 3 42L3 35.25C3 33.5931 4.34315 32.25 6 32.25C7.65686 32.25 9 33.5931 9 35.25L9 39C9 40.6569 10.3431 42 12 42L39 42C40.6569 42 42 40.6569 42 39V9C42 7.34315 40.6569 6 39 6L12 6C10.3432 6 9 7.34315 9 9V12.75C9 14.4069 7.65686 15.75 6 15.75C4.34315 15.75 3 14.4069 3 12.75L3 6C3 2.68629 5.6863 0 9 0L42 1.70474e-06Z" fill="#F9BD24"/>
<path d="M28.4977 21.641C30.0264 22.8422 30.0264 25.1578 28.4977 26.359L15.3535 36.6866C13.3851 38.2332 10.5 36.8309 10.5 34.3276V31.5C10.5 29.8431 9.15685 28.5 7.5 28.5H3C1.34315 28.5 0 27.1569 0 25.5V22.5C0 20.8431 1.34315 19.5 3 19.5H7.5C9.15685 19.5 10.5 18.1569 10.5 16.5V13.6724C10.5 11.1691 13.3851 9.76684 15.3535 11.3134L28.4977 21.641Z" fill="#F9BD24"/>
</svg>
