<svg width="48" height="48" viewBox="0 0 48 48" fill="none" xmlns="http://www.w3.org/2000/svg">
<path d="M48 8.625C48 13.3885 44.1385 17.25 39.375 17.25C37.5143 17.25 35.7912 16.6608 34.3822 15.6588C33.1482 14.7813 31.5034 14.3868 30.1921 15.1439L18.0434 22.1579C17.5283 22.4554 17.25 23.0302 17.25 23.625C17.25 24.1895 17.516 24.7337 18.0049 25.016L30.8219 32.4159C32.0532 33.1268 33.5901 32.8218 34.7942 32.0657C36.1215 31.2321 37.692 30.75 39.375 30.75C44.1385 30.75 48 34.6115 48 39.375C48 44.1385 44.1385 48 39.375 48C34.6115 48 30.75 44.1385 30.75 39.375C30.75 39.3303 30.7264 39.2889 30.6877 39.2666L16.4373 31.0391C15.294 30.379 13.8751 30.5949 12.7131 31.2215C11.4964 31.8776 10.1042 32.25 8.625 32.25C3.86154 32.25 0 28.3885 0 23.625C0 18.8615 3.86154 15 8.625 15C10.0915 15 11.4724 15.366 12.6816 16.0116C13.8406 16.6304 15.2523 16.8412 16.3902 16.1842L29.4275 8.65716C30.2764 8.16705 30.7974 7.28219 31.0568 6.33692C32.0593 2.68397 35.4037 0 39.375 0C44.1385 0 48 3.86154 48 8.625Z" fill="#F9BD24"/>
</svg>
