<svg width="14" height="48" viewBox="0 0 14 48" fill="none" xmlns="http://www.w3.org/2000/svg">
<path d="M1.73278 0V23.318C1.73278 23.318 1.73278 24.8898 1.73278 28.0333C3.73215 26.0195 5.97588 24.988 8.46398 24.9389C10.019 24.9389 11.3519 25.6511 12.4627 27.0755C13.4402 28.4017 13.9511 29.8753 13.9956 31.4962C14.04 32.7733 13.7512 34.2468 13.1292 35.9169C12.907 36.6045 12.4183 37.3413 11.663 38.1272C11.0854 38.7166 10.4856 39.3306 9.86354 39.9691C6.57569 42.6215 3.28784 45.2985 0 48V0H1.73278ZM7.13107 29.6543C6.5979 28.9666 5.90923 28.6228 5.06506 28.6228C3.99873 28.6228 3.13234 29.2859 2.46588 30.6121C1.97715 31.6436 1.73278 34.0749 1.73278 37.9062V44.2424C1.77721 44.4389 3.02126 43.2355 5.46494 40.6322C6.79784 39.2569 7.66423 37.636 8.06411 35.7695C8.24183 35.0327 8.33069 34.296 8.33069 33.5592C8.33069 31.9383 7.93081 30.6366 7.13107 29.6543Z" fill="#061928"/>
</svg>
