<svg width="28" height="48" viewBox="0 0 28 48" fill="none" xmlns="http://www.w3.org/2000/svg">
<path fill-rule="evenodd" clip-rule="evenodd" d="M22.96 30.9039L22.9426 30.9198L25.7984 35.8664C27.2588 38.7103 27.2596 41.5954 25.7984 43.9887C24.3111 46.4256 21.4751 48 18.5749 48C15.8466 47.996 13.4874 46.6497 11.9304 44.1946C11.1463 43.032 10.8866 41.5321 11.2176 40.0764C11.5487 38.6208 12.4317 37.3822 13.641 36.6773C14.4639 36.1564 15.4192 35.8832 16.3931 35.8901C18.3017 35.8901 20.071 36.8492 21.0086 38.3927L21.0585 38.3634L18.9836 34.7798C18.8295 34.514 18.6088 34.293 18.3433 34.1386C18.0778 33.9842 17.7765 33.9016 17.4694 33.8991C16.3503 34.1819 15.2008 34.3265 14.0465 34.33C6.76204 34.33 0.685319 28.3467 0.5 20.9909V20.2441C0.594243 17.0422 1.85425 14.047 4.14302 11.5919C4.40271 11.3149 4.56693 10.9621 4.61168 10.585C4.65642 10.208 4.57934 9.82651 4.3917 9.49641L3.56885 8.07088C3.10065 7.25186 2.8547 6.32466 2.85539 5.38125C2.85609 4.43784 3.1034 3.51101 3.57281 2.69267C4.60553 0.955898 6.22509 0 8.1258 0C9.90533 0 11.6437 0.882246 12.6637 2.30223C13.6664 3.69688 13.881 5.46216 13.2704 7.27179L13.2569 7.31218H13.2997C13.5587 7.29713 13.82 7.29001 14.0782 7.29001C16.4842 7.28769 18.8455 7.93914 20.91 9.17475C22.9745 10.4104 24.6644 12.1837 25.7992 14.3052C28.3644 19.0364 28.484 26.0041 22.96 30.9039ZM16.3915 27.6157C17.8131 27.6109 19.2076 27.2262 20.4305 26.5014C23.139 24.9603 24.6825 22.045 24.456 18.8732C24.2295 15.7014 22.2853 13.0214 19.3812 11.8794L19.336 11.862L19.3416 11.9095C19.5435 13.575 19.1158 15.056 18.1077 16.194C17.0837 17.3479 15.5148 18.0361 13.9103 18.0361C11.9526 18.0361 10.2879 17.0652 9.34304 15.372L9.3177 15.3268L9.29236 15.372C7.81614 17.995 7.80822 20.9355 9.27177 23.4381C10.7781 26.0152 13.5064 27.6157 16.3915 27.6157ZM8.87748 2.99224C8.60543 3.14578 8.37657 3.36554 8.21212 3.63114C7.89296 4.15938 7.89217 4.78503 8.21133 5.39088L9.52123 7.65985L9.54183 7.6551C10.3243 7.48325 10.9887 6.93362 11.3538 6.15037C11.7189 5.36712 11.715 4.50547 11.3427 3.79271C11.3206 3.74202 11.2921 3.68737 11.2635 3.63431C11.1124 3.37011 10.895 3.14986 10.6328 2.99528C10.3706 2.84071 10.0727 2.75716 9.76833 2.75286C9.45596 2.75636 9.14953 2.8387 8.87748 2.99224Z" fill="#F9BD24"/>
</svg>
