<svg width="48" height="48" viewBox="0 0 48 48" fill="none" xmlns="http://www.w3.org/2000/svg">
<path fill-rule="evenodd" clip-rule="evenodd" d="M27 18C27 17.7112 27.1594 17.4348 27.4264 17.3248C30.6975 15.977 33 12.7574 33 9C33 4.02944 28.9706 0 24 0C19.0294 0 15 4.02944 15 9C15 12.7574 17.3025 15.977 20.5736 17.3248C20.8406 17.4348 21 17.7112 21 18V19.5C21 20.3284 20.3284 21 19.5 21H9C7.34315 21 6 22.3431 6 24C6 24.0634 6.00197 24.1264 6.00584 24.1888C6.01354 24.3128 6.01354 24.4372 6.00584 24.5612C6.00197 24.6236 6 24.6866 6 24.75V30C6 30.2888 5.84061 30.5652 5.57358 30.6752C2.30253 32.023 0 35.2426 0 39C0 43.9706 4.02944 48 9 48C13.9706 48 18 43.9706 18 39C18 35.2426 15.6975 32.023 12.4264 30.6752C12.1594 30.5652 12 30.2888 12 30V28.5C12 27.6716 12.6716 27 13.5 27H34.5C35.3284 27 36 27.6716 36 28.5V30C36 30.2888 35.8406 30.5652 35.5736 30.6752C32.3025 32.023 30 35.2426 30 39C30 43.9706 34.0294 48 39 48C43.9706 48 48 43.9706 48 39C48 35.2426 45.6975 32.023 42.4264 30.6752C42.1594 30.5652 42 30.2888 42 30V24.75C42 24.6866 41.998 24.6236 41.9942 24.5612C41.9865 24.4372 41.9865 24.3128 41.9942 24.1888C41.998 24.1264 42 24.0634 42 24C42 22.3431 40.6569 21 39 21H28.5C27.6716 21 27 20.3284 27 19.5V18ZM27 9C27 10.6569 25.6569 12 24 12C22.3431 12 21 10.6569 21 9C21 7.34315 22.3431 6 24 6C25.6569 6 27 7.34315 27 9ZM9 42C10.6569 42 12 40.6569 12 39C12 37.3431 10.6569 36 9 36C7.34315 36 6 37.3431 6 39C6 40.6569 7.34315 42 9 42ZM42 39C42 40.6569 40.6569 42 39 42C37.3431 42 36 40.6569 36 39C36 37.3431 37.3431 36 39 36C40.6569 36 42 37.3431 42 39Z" fill="#9F1A1A"/>
</svg>
