<svg width="48" height="48" viewBox="0 0 48 48" fill="none" xmlns="http://www.w3.org/2000/svg">
<path d="M-0.000244141 24C-0.000244009 22.653 0.110718 21.332 0.324 20.0455C0.591512 18.4319 2.249 17.5277 3.82404 17.9687C5.43847 18.4207 6.34071 20.1126 6.13572 21.7765C6.04597 22.5051 5.99975 23.2471 5.99975 24C5.99975 33.9411 14.0586 42 23.9997 42C24.7526 42 25.4947 41.9538 26.2234 41.864C27.8873 41.659 29.5792 42.5612 30.0312 44.1757C30.4722 45.7507 29.568 47.4082 27.9544 47.6757C26.6679 47.889 25.3468 48 23.9998 48C10.7449 48 -0.000245699 37.2548 -0.000244141 24Z" fill="#9F1A1A"/>
<path d="M20.046 0.324122C18.4324 0.59159 17.5281 2.24911 17.9691 3.82419C18.4211 5.43858 20.1129 6.34083 21.7768 6.1359C22.5052 6.04619 23.2471 5.99999 23.9998 5.99999C33.9409 5.99999 41.9997 14.0589 41.9997 24C41.9997 24.7527 41.9535 25.4946 41.8638 26.223C41.6589 27.887 42.5611 29.5787 44.1755 30.0308C45.7506 30.4718 47.4081 29.5675 47.6756 27.9539C47.8888 26.6676 47.9998 25.3468 47.9998 24C47.9998 10.7452 37.2546 1.97352e-06 23.9998 0C22.6531 1.1208e-06 21.3323 0.110921 20.046 0.324122Z" fill="#9F1A1A"/>
<path d="M8.99993 24C8.99993 23.4746 9.02695 22.9555 9.07966 22.444C9.24527 20.837 10.8967 19.949 12.4524 20.3846L12.7164 20.4586C14.2008 20.8742 14.9997 22.4585 14.9997 24C14.9997 28.9705 19.0292 33 23.9997 33C25.5413 33 27.1257 33.7989 27.5414 35.2834L27.6153 35.5474C28.0509 37.1031 27.1629 38.7546 25.5558 38.9202C25.0444 38.9729 24.5253 39 23.9999 39C15.7157 39 8.99993 32.2842 8.99993 24Z" fill="#9F1A1A"/>
<path d="M22.4446 9.07962C20.8374 9.24519 19.9494 10.8967 20.385 12.4525L20.4591 12.717C20.8747 14.2011 22.4586 15 23.9997 15C28.9703 15 32.9997 19.0294 32.9997 24C32.9997 25.5412 33.7986 27.1252 35.2828 27.5408L35.5472 27.6149C37.1031 28.0505 38.7547 27.1625 38.9203 25.5553C38.9729 25.044 38.9999 24.5251 38.9999 24C38.9999 15.7157 32.2842 8.99996 23.9999 8.99996C23.4747 8.99996 22.9558 9.02695 22.4446 9.07962Z" fill="#9F1A1A"/>
<path d="M23.9998 28.5C26.4851 28.5 28.4998 26.4852 28.4998 24C28.4998 21.5147 26.4851 19.5 23.9998 19.5C21.5145 19.5 19.4998 21.5147 19.4998 24C19.4998 26.4852 21.5145 28.5 23.9998 28.5Z" fill="#9F1A1A"/>
</svg>
