<svg xmlns="http://www.w3.org/2000/svg" width="39.909" height="39.909" viewBox="0 0 39.909 39.909"><defs><style>.a{fill:#9f1a1a;}.b,.c{stroke:none;}.c{fill:#fff;}</style></defs><g transform="translate(0)"><g class="a" transform="translate(39.909 39.909) rotate(180)"><path class="b" d="M 19.95445251464844 38.40890121459961 C 15.02509212493896 38.40890121459961 10.39077281951904 36.48930358886719 6.905182361602783 33.00372314453125 C 3.419602632522583 29.51813316345215 1.500002503395081 24.88381195068359 1.500002503395081 19.95445251464844 C 1.500002503395081 15.02509212493896 3.419602632522583 10.39077281951904 6.905182361602783 6.905182361602783 C 10.39077281951904 3.419602632522583 15.02509212493896 1.500002503395081 19.95445251464844 1.500002503395081 C 24.88381195068359 1.500002503395081 29.51813316345215 3.419602632522583 33.00372314453125 6.905182361602783 C 36.48930358886719 10.39077281951904 38.40890121459961 15.02509212493896 38.40890121459961 19.95445251464844 C 38.40890121459961 24.88381195068359 36.48930358886719 29.51813316345215 33.00372314453125 33.00372314453125 C 29.51813316345215 36.48930358886719 24.88381195068359 38.40890121459961 19.95445251464844 38.40890121459961 Z"/><path class="c" d="M 19.95445251464844 3.000003814697266 C 15.42575263977051 3.000003814697266 11.16812324523926 4.763572692871094 7.965843200683594 7.965843200683594 C 4.763572692871094 11.16812324523926 3.000003814697266 15.42575263977051 3.000003814697266 19.95445251464844 C 3.000003814697266 24.48315238952637 4.763572692871094 28.74078369140625 7.965843200683594 31.94306182861328 C 11.16812324523926 35.14533233642578 15.42575263977051 36.90890121459961 19.95445251464844 36.90890121459961 C 24.48315238952637 36.90890121459961 28.74078369140625 35.14533233642578 31.94306182861328 31.94306182861328 C 35.14533233642578 28.74078369140625 36.90890121459961 24.48315238952637 36.90890121459961 19.95445251464844 C 36.90890121459961 15.42575263977051 35.14533233642578 11.16812324523926 31.94306182861328 7.965843200683594 C 28.74078369140625 4.763572692871094 24.48315238952637 3.000003814697266 19.95445251464844 3.000003814697266 M 19.95445251464844 3.814697265625e-06 C 30.9749927520752 3.814697265625e-06 39.90890121459961 8.93391227722168 39.90890121459961 19.95445251464844 C 39.90890121459961 30.9749927520752 30.9749927520752 39.90890121459961 19.95445251464844 39.90890121459961 C 8.93391227722168 39.90890121459961 3.814697265625e-06 30.9749927520752 3.814697265625e-06 19.95445251464844 C 3.814697265625e-06 8.93391227722168 8.93391227722168 3.814697265625e-06 19.95445251464844 3.814697265625e-06 Z"/></g></g></svg>