<svg xmlns="http://www.w3.org/2000/svg" width="13.369" height="13.369" viewBox="0 0 13.369 13.369"><path class="a" d="M49.6,1.426a.836.836,0,0,1,0,1.182l-.886.886a.836.836,0,0,1-1.182,0L46.349,2.313a.836.836,0,0,1,0-1.182l.886-.886a.836.836,0,0,1,1.182,0Z" transform="translate(-36.475)"/><path class="a" d="M19.617,15.568a.836.836,0,0,1,0,1.182l-4.032,4.032a.835.835,0,0,1-.237.166l-2.216,1.034a.836.836,0,0,1-1.11-1.11l1.034-2.216a.836.836,0,0,1,.166-.237l4.032-4.032a.836.836,0,0,1,1.182,0Z" transform="translate(-9.445 -11.188)"/><path class="a" d="M0,56.836A.836.836,0,0,1,.836,56H9.609a.836.836,0,1,1,0,1.671H.836A.836.836,0,0,1,0,56.836Z" transform="translate(0 -44.302)"/><path class="a" d="M56,56.836a.836.836,0,1,1,.836.836A.836.836,0,0,1,56,56.836Z" transform="translate(-44.303 -44.302)"/></svg>