<svg width="44" height="64" viewBox="0 0 44 64" fill="none" xmlns="http://www.w3.org/2000/svg">
<path fill-rule="evenodd" clip-rule="evenodd" d="M44 22C44 27.1211 42.2502 31.8336 39.3159 35.5721C38.5579 36.5379 37.9195 37.6015 37.5668 38.7775L35.9104 44.2988C34.8952 47.6827 31.7806 50 28.2478 50H15.7522C12.2194 50 9.1048 47.6827 8.08963 44.2988L6.43323 38.7775C6.08045 37.6015 5.44213 36.5379 4.68411 35.5721C1.74979 31.8336 0 27.1211 0 22C0 9.84974 9.84974 0 22 0C34.1503 0 44 9.84974 44 22ZM31.2705 34.3396C31.6064 32.8211 32.428 31.4693 33.341 30.2104C35.0137 27.9039 36 25.0671 36 22C36 14.268 29.732 8 22 8C14.268 8 8 14.268 8 22C8 25.0671 8.9863 27.9039 10.659 30.2104C11.572 31.4693 12.3936 32.8211 12.7295 34.3396L13.2578 36.7279C14.0682 40.3918 17.3164 43.0001 21.069 43.0001H22.931C26.6836 43.0001 29.9318 40.3919 30.7422 36.7279L31.2705 34.3396Z" fill="#0B4440"/>
<path d="M16.9761 64C15.2097 64 13.6524 62.8413 13.1448 61.1494C12.3749 58.5829 14.2967 56 16.9761 56H27.0239C29.7033 56 31.6251 58.5829 30.8552 61.1494C30.3476 62.8413 28.7903 64 27.0239 64H16.9761Z" fill="#0B4440"/>
</svg>
