<svg width="65" height="64" viewBox="0 0 65 64" fill="none" xmlns="http://www.w3.org/2000/svg">
<path d="M0 60C0 57.7909 1.79086 56 4 56H46C48.2091 56 50 57.7909 50 60C50 62.2091 48.2091 64 46 64H4C1.79086 64 0 62.2091 0 60Z" fill="#8C2E36"/>
<path d="M56 60C56 57.7909 57.7909 56 60 56C62.2091 56 64 57.7909 64 60C64 62.2091 62.2091 64 60 64C57.7909 64 56 62.2091 56 60Z" fill="#8C2E36"/>
<path d="M48.6903 20.9705C50.2524 22.5326 50.2524 25.0653 48.6903 26.6274L29.3896 45.9281C29.06 46.2577 28.6752 46.5272 28.2528 46.7244L17.6461 51.6741C14.261 53.2539 10.7501 49.743 12.3299 46.3578L17.2796 35.7512C17.4768 35.3288 17.7463 34.944 18.0759 34.6144L37.3766 15.3137C38.9387 13.7516 41.4714 13.7516 43.0335 15.3137L48.6903 20.9705Z" fill="#0B4440"/>
<path d="M62.8324 6.82843C64.3945 8.39052 64.3945 10.9232 62.8324 12.4853L58.5898 16.7279C57.0277 18.29 54.495 18.29 52.9329 16.7279L47.2761 11.0711C45.714 9.50897 45.714 6.97631 47.2761 5.41421L51.5187 1.17157C53.0808 -0.390524 55.6135 -0.390524 57.1756 1.17157L62.8324 6.82843Z" fill="#6D8C84"/>
</svg>
