<svg width="42" height="48" viewBox="0 0 42 48" fill="none" xmlns="http://www.w3.org/2000/svg">
<path d="M31.8167 6.90829C32.9223 7.46108 32.9223 9.03879 31.8167 9.59157L18.6708 16.1645C17.6735 16.6632 16.5 15.938 16.5 14.8229V11.7301C16.5 10.7173 15.514 9.99805 14.5983 10.4308C9.51606 12.8328 6 18.0058 6 24.0001C6 24.1637 6.00263 24.3268 6.00783 24.4892C6.0312 25.2185 6.10664 25.9347 6.23055 26.6342C6.52062 28.2716 7.07633 29.8173 7.85156 31.225C8.0802 31.6402 8.22967 32.0922 8.29915 32.5507C8.35925 32.9472 8.3595 33.3486 8.29936 33.7352C8.15096 34.6892 7.63476 35.5529 6.74274 36.0307C5.51995 36.6858 3.98483 36.3882 3.24292 35.2161C1.24615 32.0615 0.0668432 28.3381 0.00275712 24.3437C0.000921371 24.2293 0 24.1147 0 23.9999C0 14.3676 6.48519 6.24989 15.3275 3.77502C16.0065 3.58496 16.5 2.98049 16.5 2.27536V1.67698C16.5 0.561912 17.6735 -0.163333 18.6708 0.335343L31.8167 6.90829Z" fill="#9F1A1A"/>
<path d="M41.9983 24.2714C41.8778 33.7846 35.4317 41.7734 26.6725 44.225C25.9935 44.415 25.5 45.0195 25.5 45.7246V46.323C25.5 47.4381 24.3265 48.1633 23.3292 47.6647L10.1833 41.0917C9.07771 40.5389 9.07771 38.9612 10.1833 38.4084L23.3292 31.8355C24.3265 31.3368 25.5 32.062 25.5 33.1771V36.2699C25.5 37.2827 26.486 38.0019 27.4017 37.5692C32.4839 35.1672 36 29.9942 36 23.9999C36 23.3451 35.958 22.7 35.8766 22.0673C35.6325 20.1692 35.0335 18.3822 34.1484 16.775C33.9374 16.3918 33.7939 15.9773 33.7184 15.5553C33.6711 15.2913 33.6505 15.0245 33.6567 14.7605C33.6835 13.6174 34.2127 12.5288 35.2573 11.9693C36.48 11.3142 38.0152 11.6118 38.7571 12.7839C40.1444 14.9757 41.1371 17.4421 41.6354 20.0832C41.8748 21.3521 42 22.6614 42 23.9999C42 24.0905 41.9994 24.1811 41.9983 24.2714Z" fill="#9F1A1A"/>
</svg>
