<svg id="Icon_ionic-ios-save" data-name="Icon ionic-ios-save" xmlns="http://www.w3.org/2000/svg" width="19.356" height="19.356" viewBox="0 0 19.356 19.356">
  <path id="Path_407" data-name="Path 407" d="M18.647,4.5h-.806a.4.4,0,0,0-.4.4V8.532c0,.222.383.4.6.4h.6a.4.4,0,0,0,.4-.4V4.9A.4.4,0,0,0,18.647,4.5Z" transform="translate(-8.163 -4.5)" fill="#9f1a1a"/>
  <path id="Path_408" data-name="Path 408" d="M23.145,7.832,20.529,5.216A2.439,2.439,0,0,0,18.81,4.5H17.4a.814.814,0,0,0-.806.817V9.349a.809.809,0,0,1-.806.806H9.339a.809.809,0,0,1-.806-.806V5.317A.818.818,0,0,0,7.726,4.5H6.113A1.618,1.618,0,0,0,4.5,6.113v16.13a1.618,1.618,0,0,0,1.613,1.613h16.13a1.618,1.618,0,0,0,1.613-1.613V9.541A2.42,2.42,0,0,0,23.145,7.832ZM17.5,21.441a.858.858,0,0,1-.9.806H8.522a.858.858,0,0,1-.9-.806V16.6a.858.858,0,0,1,.9-.806h8.085a.858.858,0,0,1,.9.806v4.839Z" transform="translate(-4.5 -4.5)" fill="#9f1a1a"/>
</svg>
