<svg width="48" height="48" viewBox="0 0 48 48" fill="none" xmlns="http://www.w3.org/2000/svg">
<path fill-rule="evenodd" clip-rule="evenodd" d="M48 7.5C48 5.84315 46.6569 4.5 45 4.5H31.339C30.1466 4.5 29.1083 3.7559 28.3643 2.82405C26.99 1.10282 24.8738 0 22.5 0C20.1262 0 18.01 1.10282 16.6357 2.82405C15.8917 3.7559 14.8534 4.5 13.661 4.5H3C1.34315 4.5 0 5.84315 0 7.5C0 9.15685 1.34314 10.5 3 10.5H13.661C14.8534 10.5 15.8917 11.2441 16.6357 12.1759C18.01 13.8972 20.1262 15 22.5 15C24.8738 15 26.99 13.8972 28.3643 12.1759C29.1083 11.2441 30.1466 10.5 31.339 10.5H45C46.6569 10.5 48 9.15685 48 7.5ZM22.5 10.5C24.1569 10.5 25.5 9.15685 25.5 7.5C25.5 5.84315 24.1569 4.5 22.5 4.5C20.8431 4.5 19.5 5.84315 19.5 7.5C19.5 9.15685 20.8431 10.5 22.5 10.5Z" fill="#9F1A1A"/>
<path fill-rule="evenodd" clip-rule="evenodd" d="M41.8643 19.3241C42.6083 20.2559 43.6466 21 44.839 21H45C46.6569 21 48 22.3431 48 24C48 25.6569 46.6569 27 45 27H44.839C43.6466 27 42.6083 27.7441 41.8643 28.6759C40.49 30.3972 38.3738 31.5 36 31.5C33.6262 31.5 31.51 30.3972 30.1357 28.6759C29.3917 27.7441 28.3534 27 27.161 27H3C1.34315 27 0 25.6569 0 24C0 22.3431 1.34315 21 3 21H27.161C28.3534 21 29.3917 20.2559 30.1357 19.3241C31.51 17.6028 33.6262 16.5 36 16.5C38.3738 16.5 40.49 17.6028 41.8643 19.3241ZM39 24C39 25.6569 37.6569 27 36 27C34.3431 27 33 25.6569 33 24C33 22.3431 34.3431 21 36 21C37.6569 21 39 22.3431 39 24Z" fill="#9F1A1A"/>
<path fill-rule="evenodd" clip-rule="evenodd" d="M48 40.5C48 38.8431 46.6569 37.5 45 37.5H20.839C19.6466 37.5 18.6083 36.7559 17.8643 35.8241C16.49 34.1028 14.3738 33 12 33C9.6262 33 7.50998 34.1028 6.13572 35.8241C5.39173 36.7559 4.3534 37.5 3.16097 37.5H3C1.34315 37.5 0 38.8431 0 40.5C0 42.1569 1.34314 43.5 3 43.5H3.16097C4.3534 43.5 5.39173 44.2441 6.13572 45.1759C7.50998 46.8972 9.6262 48 12 48C14.3738 48 16.49 46.8972 17.8643 45.1759C18.6083 44.2441 19.6466 43.5 20.839 43.5H45C46.6569 43.5 48 42.1569 48 40.5ZM12 43.5C13.6569 43.5 15 42.1569 15 40.5C15 38.8431 13.6569 37.5 12 37.5C10.3431 37.5 9 38.8431 9 40.5C9 42.1569 10.3431 43.5 12 43.5Z" fill="#9F1A1A"/>
</svg>
