<svg xmlns="http://www.w3.org/2000/svg" width="34.914" height="23.276" viewBox="0 0 34.914 23.276"><defs><style>.a{fill:#f9bd24;}</style></defs><path class="a" d="M34.425,15.405,28.019,5.8A2.91,2.91,0,0,0,25.6,4.5H9.316A2.91,2.91,0,0,0,6.895,5.8L.489,15.405A2.909,2.909,0,0,0,0,17.019v7.848a2.909,2.909,0,0,0,2.91,2.91H32a2.909,2.909,0,0,0,2.91-2.91V17.019a2.909,2.909,0,0,0-.489-1.614ZM9.835,8.379H25.079l5.172,7.759H22.791l-1.94,3.879H14.063l-1.94-3.879H4.662L9.835,8.379Z" transform="translate(0 -4.5)"/></svg>