<svg width="48" height="48" viewBox="0 0 48 48" fill="none" xmlns="http://www.w3.org/2000/svg">
<path d="M9 3C9 1.34315 7.65685 0 6 0H3C1.34315 0 0 1.34315 0 3V6C0 7.65685 1.34315 9 3 9H6C7.65685 9 9 7.65685 9 6V3Z" fill="#9F1A1A"/>
<path d="M48 3C48 1.34315 46.6569 0 45 0H21C19.3431 0 18 1.34315 18 3V6C18 7.65685 19.3431 9 21 9H45C46.6569 9 48 7.65685 48 6V3Z" fill="#9F1A1A"/>
<path d="M48 22.5C48 20.8431 46.6569 19.5 45 19.5H21C19.3431 19.5 18 20.8431 18 22.5V25.5C18 27.1569 19.3431 28.5 21 28.5H45C46.6569 28.5 48 27.1569 48 25.5V22.5Z" fill="#9F1A1A"/>
<path d="M18 40.5C18 38.8431 19.3431 37.5 21 37.5H45C46.6569 37.5 48 38.8431 48 40.5V45C48 46.6569 46.6569 48 45 48H21C19.3431 48 18 46.6569 18 45V40.5Z" fill="#9F1A1A"/>
<path d="M0 22.5C0 20.8431 1.34315 19.5 3 19.5H6C7.65685 19.5 9 20.8431 9 22.5V25.5C9 27.1569 7.65685 28.5 6 28.5H3C1.34315 28.5 0 27.1569 0 25.5V22.5Z" fill="#9F1A1A"/>
<path d="M9 40.5C9 38.8431 7.65685 37.5 6 37.5H3C1.34315 37.5 0 38.8431 0 40.5V45C0 46.6569 1.34315 48 3 48H6C7.65685 48 9 46.6569 9 45V40.5Z" fill="#9F1A1A"/>
</svg>
