<svg xmlns="http://www.w3.org/2000/svg" xmlns:xlink="http://www.w3.org/1999/xlink" width="45" height="45" viewBox="0 0 45 45">
  <defs>
    <filter id="Ellipse_11" x="0" y="0" width="45" height="45" filterUnits="userSpaceOnUse">
      <feOffset dy="3" input="SourceAlpha"/>
      <feGaussianBlur stdDeviation="3" result="blur"/>
      <feFlood flood-opacity="0.161"/>
      <feComposite operator="in" in2="blur"/>
      <feComposite in="SourceGraphic"/>
    </filter>
  </defs>
  <g id="MelodyBar" transform="translate(37 4.183)">
    <g transform="matrix(1, 0, 0, 1, -37, -4.18)" filter="url(#Ellipse_11)">
      <circle id="Ellipse_11-2" data-name="Ellipse 11" cx="13.5" cy="13.5" r="13.5" transform="translate(9 6)" fill="#133433"/>
    </g>
    <path id="Notero" d="M25.677,16.067l-.009.008,1.485,2.572a4.192,4.192,0,0,1,0,4.223A4.475,4.475,0,0,1,23.4,24.956a4.014,4.014,0,0,1-3.455-1.978,2.819,2.819,0,0,1,.889-3.908,2.64,2.64,0,0,1,1.431-.409,2.8,2.8,0,0,1,2.4,1.3l.026-.015L23.61,18.083a.919.919,0,0,0-.787-.458,7.354,7.354,0,0,1-1.78.224A7.124,7.124,0,0,1,14,10.913v-.388a6.83,6.83,0,0,1,1.894-4.5.925.925,0,0,0,.129-1.089L15.6,4.2a2.813,2.813,0,0,1,0-2.8A2.692,2.692,0,0,1,17.965,0a2.944,2.944,0,0,1,2.359,1.2,2.789,2.789,0,0,1,.315,2.584l-.007.021h.022c.135-.008.271-.012.4-.012a6.9,6.9,0,0,1,6.094,3.647A6.938,6.938,0,0,1,25.677,16.067Zm-3.415-1.71a4.245,4.245,0,0,0,4.193-4.545,4.179,4.179,0,0,0-2.638-3.636l-.023-.009,0,.025a2.758,2.758,0,0,1-.642,2.228,2.948,2.948,0,0,1-2.182.958A2.648,2.648,0,0,1,18.6,7.992l-.013-.023-.013.023a4.122,4.122,0,0,0-.011,4.194A4.328,4.328,0,0,0,22.262,14.358Zm-3.907-12.8a.964.964,0,0,0-.346.332.9.9,0,0,0,0,.915l.681,1.18.011,0a1.376,1.376,0,0,0,.942-.782,1.377,1.377,0,0,0-.006-1.226c-.012-.026-.026-.055-.041-.082a.91.91,0,0,0-.777-.458A.964.964,0,0,0,18.356,1.556Z" transform="translate(-35.542 2.546)" fill="#14c287"/>
  </g>
</svg>
