<svg width="49" height="48" viewBox="0 0 49 48" fill="none" xmlns="http://www.w3.org/2000/svg">
<path d="M39.1174 46.1812C40.5365 47.3638 42.6834 46.9969 43.5058 45.3428C46.7025 38.914 48.5 31.6669 48.5 24C48.5 16.3331 46.7025 9.086 43.5059 2.65721C42.6834 1.00312 40.5365 0.636223 39.1174 1.81883L39.0622 1.86487C37.9511 2.79077 37.6696 4.37274 38.3015 5.67371C40.9914 11.2117 42.5 17.4297 42.5 24C42.5 30.5703 40.9914 36.7883 38.3015 42.3263C37.6696 43.6273 37.9511 45.2092 39.0622 46.1351L39.1174 46.1812Z" fill="#F9BD24"/>
<path d="M29.583 9.76419C31.0531 8.53907 33.2855 8.9858 33.9894 10.7654C35.6097 14.862 36.5 19.327 36.5 24C36.5 28.673 35.6096 33.138 33.9893 37.2346C33.2855 39.0142 31.0531 39.4609 29.583 38.2358L29.4769 38.1474C28.4307 37.2756 28.1182 35.8137 28.5967 34.5388C29.8271 31.26 30.5 27.7086 30.5 24C30.5 20.2914 29.8271 16.74 28.5967 13.4612C28.1182 12.1863 28.4308 10.7244 29.4769 9.85259L29.583 9.76419Z" fill="#F9BD24"/>
<path d="M21.3861 48C20.6843 48 20.0047 47.754 19.4656 47.3047L10.5794 39.8996C9.89547 39.3296 9.5 38.4852 9.5 37.5949V10.4051C9.5 9.51479 9.89546 8.67045 10.5794 8.10047L19.4656 0.695336C20.0048 0.246049 20.6844 0 21.3862 0H21.5C23.1569 0 24.5 1.34315 24.5 3V45C24.5 46.6569 23.1569 48 21.5 48H21.3861Z" fill="#F9BD24"/>
<path d="M6.5 12C6.5 10.3431 5.15686 9 3.5 9C1.84315 9 0.5 10.3431 0.5 12V36C0.5 37.6569 1.84315 39 3.5 39C5.15686 39 6.5 37.6569 6.5 36V12Z" fill="#F9BD24"/>
</svg>
